name rise32.9588peak41.5061fall63.4684.mot
datacolumns 19
datarows 35
range 23.32491500000000 23.38159300000000
endheader
time	ground_force1_vx	ground_force1_vy	ground_force1_vz	ground_force1_px	ground_force1_py	ground_force1_pz	ground_force2_vx	ground_force2_vy	ground_force2_vz	ground_force2_px	ground_force2_py	ground_force2_pz	ground_torque1_x	ground_torque1_y	ground_torque1_z	ground_torque2_x	ground_torque2_y	ground_torque2_z	
23.32491500000000	-34.81890000000000	798.58705899999995	55.08373500000000	0.08802100000000	0.00000000000000	0.11171300000000	-2.58817000000000	34.45670600000000	4.71853000000000	0.32789800000000	0.00000000000000	-0.06596000000000	0.00000000000000	16.89053300000000	0.00000000000000	0.00000000000000	3.04583000000000	0.00000000000000	
23.32659100000000	-35.01475300000000	796.41397900000004	54.92303300000000	0.08740200000000	0.00000000000000	0.11158800000000	-2.91719500000000	41.08567900000000	5.48604600000000	0.33005400000000	0.00000000000000	-0.06607000000000	0.00000000000000	16.79876700000000	0.00000000000000	0.00000000000000	3.56666600000000	0.00000000000000	
23.32824700000000	-35.22038300000000	794.11903700000005	54.74441400000000	0.08679100000000	0.00000000000000	0.11145900000000	-3.19959600000000	47.82851900000000	6.22396000000000	0.33206300000000	0.00000000000000	-0.06618000000000	0.00000000000000	16.70766300000000	0.00000000000000	0.00000000000000	4.07546200000000	0.00000000000000	
23.32991500000000	-35.43635800000000	791.70146099999999	54.54755900000000	0.08618800000000	0.00000000000000	0.11132500000000	-3.42298200000000	54.57168900000000	6.91377000000000	0.33393700000000	0.00000000000000	-0.06629200000000	0.00000000000000	16.61737300000000	0.00000000000000	0.00000000000000	4.56022000000000	0.00000000000000	
23.33159000000000	-35.66321500000000	789.16049899999996	54.33217500000000	0.08559200000000	0.00000000000000	0.11118700000000	-3.57773400000000	61.22212200000000	7.54081500000000	0.33568500000000	0.00000000000000	-0.06640600000000	0.00000000000000	16.52804600000000	0.00000000000000	0.00000000000000	5.01128300000000	0.00000000000000	
23.33324100000000	-35.90145700000000	786.49541599999998	54.09799100000000	0.08500300000000	0.00000000000000	0.11104500000000	-3.65731400000000	67.71181000000000	8.09485500000000	0.33731700000000	0.00000000000000	-0.06652200000000	0.00000000000000	16.43982100000000	0.00000000000000	0.00000000000000	5.42175700000000	0.00000000000000	
23.33491400000000	-36.15154800000000	783.70548899999994	53.84475800000000	0.08442100000000	0.00000000000000	0.11089800000000	-3.65826600000000	73.99961399999999	8.57019700000000	0.33884000000000	0.00000000000000	-0.06664200000000	0.00000000000000	16.35283000000000	0.00000000000000	0.00000000000000	5.78764200000000	0.00000000000000	
23.33661200000000	-36.41391000000000	780.79000599999995	53.57225500000000	0.08384500000000	0.00000000000000	0.11074700000000	-3.57998200000000	80.07057700000000	8.96542500000000	0.34026100000000	0.00000000000000	-0.06676600000000	0.00000000000000	16.26719600000000	0.00000000000000	0.00000000000000	6.10770200000000	0.00000000000000	
23.33824700000000	-36.68892000000000	777.74826299999995	53.28028700000000	0.08327500000000	0.00000000000000	0.11059200000000	-3.42426900000000	85.93319000000000	9.28283400000000	0.34158600000000	0.00000000000000	-0.06689400000000	0.00000000000000	16.18303100000000	0.00000000000000	0.00000000000000	6.38312400000000	0.00000000000000	
23.33990800000000	-36.97690300000000	774.57956000000001	52.96868500000000	0.08271000000000	0.00000000000000	0.11043200000000	-3.19480400000000	91.61520299999999	9.52764400000000	0.34282100000000	0.00000000000000	-0.06702600000000	0.00000000000000	16.10044000000000	0.00000000000000	0.00000000000000	6.61704100000000	0.00000000000000	
23.34158600000000	-37.27813400000000	771.28320199999996	52.63730900000000	0.08215000000000	0.00000000000000	0.11026800000000	-2.89653500000000	97.15858000000000	9.70712400000000	0.34396900000000	0.00000000000000	-0.06716200000000	0.00000000000000	16.01951500000000	0.00000000000000	0.00000000000000	6.81397100000000	0.00000000000000	
23.34324600000000	-37.59282900000000	767.85849399999995	52.28604700000000	0.08159500000000	0.00000000000000	0.11010000000000	-2.53508400000000	102.61416600000000	9.82968900000000	0.34503600000000	0.00000000000000	-0.06730300000000	0.00000000000000	15.94033800000000	0.00000000000000	0.00000000000000	6.97923900000000	0.00000000000000	
23.34491500000000	-37.92114300000000	764.30474500000003	51.91481900000000	0.08104300000000	0.00000000000000	0.10992800000000	-2.11620500000000	108.03654000000000	9.90407000000000	0.34602400000000	0.00000000000000	-0.06744900000000	0.00000000000000	15.86298000000000	0.00000000000000	0.00000000000000	7.11843300000000	0.00000000000000	
23.34658400000000	-38.26317000000000	760.62126100000000	51.52357400000000	0.08049500000000	0.00000000000000	0.10975100000000	-1.64533900000000	113.47944600000000	9.93859600000000	0.34693900000000	0.00000000000000	-0.06759800000000	0.00000000000000	15.78749800000000	0.00000000000000	0.00000000000000	7.23693300000000	0.00000000000000	
23.34824500000000	-38.61893400000000	756.80735000000004	51.11229100000000	0.07994900000000	0.00000000000000	0.10957100000000	-1.12726000000000	118.99205300000000	9.94063100000000	0.34778200000000	0.00000000000000	-0.06775300000000	0.00000000000000	15.71394000000000	0.00000000000000	0.00000000000000	7.33952800000000	0.00000000000000	
23.34991200000000	-38.98838900000000	752.86232099999995	50.68098300000000	0.07940600000000	0.00000000000000	0.10938600000000	-0.56585300000000	124.61619000000000	9.91618100000000	0.34855800000000	0.00000000000000	-0.06791100000000	0.00000000000000	15.64233700000000	0.00000000000000	0.00000000000000	7.43015400000000	0.00000000000000	
23.35159600000000	-39.37141800000000	748.78548300000000	50.22969600000000	0.07886400000000	0.00000000000000	0.10919800000000	0.03600300000000	130.38459599999999	9.86968100000000	0.34926900000000	0.00000000000000	-0.06807400000000	0.00000000000000	15.57270900000000	0.00000000000000	0.00000000000000	7.51173900000000	0.00000000000000	
23.35324600000000	-39.76782300000000	744.57614699999999	49.75850900000000	0.07832200000000	0.00000000000000	0.10900600000000	0.67644400000000	136.32012800000001	9.80392600000000	0.34991700000000	0.00000000000000	-0.06824100000000	0.00000000000000	15.50506200000000	0.00000000000000	0.00000000000000	7.58614600000000	0.00000000000000	
23.35491400000000	-40.17733300000000	740.23362999999995	49.26753200000000	0.07778200000000	0.00000000000000	0.10881000000000	1.35455100000000	142.43583000000001	9.72014600000000	0.35050500000000	0.00000000000000	-0.06841200000000	0.00000000000000	15.43938800000000	0.00000000000000	0.00000000000000	7.65421600000000	0.00000000000000	
23.35657600000000	-40.59958900000000	735.75725299999999	48.75691400000000	0.07724100000000	0.00000000000000	0.10861100000000	2.07021300000000	148.73567700000001	9.61818400000000	0.35103600000000	0.00000000000000	-0.06858700000000	0.00000000000000	15.37566500000000	0.00000000000000	0.00000000000000	7.71587400000000	0.00000000000000	
23.35824200000000	-41.03415500000000	731.14634599999999	48.22683600000000	0.07669900000000	0.00000000000000	0.10840800000000	2.82394300000000	155.21583799999999	9.49674000000000	0.35151100000000	0.00000000000000	-0.06876600000000	0.00000000000000	15.31385600000000	0.00000000000000	0.00000000000000	7.77028300000000	0.00000000000000	
23.35991600000000	-41.48050300000000	726.40025000000003	47.67751400000000	0.07615600000000	0.00000000000000	0.10820100000000	3.61668400000000	161.86624599999999	9.35366600000000	0.35193300000000	0.00000000000000	-0.06894800000000	0.00000000000000	15.25390900000000	0.00000000000000	0.00000000000000	7.81603700000000	0.00000000000000	
23.36158600000000	-41.93802400000000	721.51832500000000	47.10920000000000	0.07561000000000	0.00000000000000	0.10799200000000	4.44960100000000	168.67231699999999	9.18626600000000	0.35230300000000	0.00000000000000	-0.06913400000000	0.00000000000000	15.19575900000000	0.00000000000000	0.00000000000000	7.85135000000000	0.00000000000000	
23.36324200000000	-42.40601700000000	716.49995000000001	46.52218200000000	0.07506300000000	0.00000000000000	0.10777900000000	5.32389500000000	175.61665700000000	8.99158300000000	0.35262300000000	0.00000000000000	-0.06932200000000	0.00000000000000	15.13932500000000	0.00000000000000	0.00000000000000	7.87425000000000	0.00000000000000	
23.36491400000000	-42.88369400000000	711.34452899999997	45.91678300000000	0.07451200000000	0.00000000000000	0.10756400000000	6.24063100000000	182.68062699999999	8.76666000000000	0.35289500000000	0.00000000000000	-0.06951400000000	0.00000000000000	15.08451000000000	0.00000000000000	0.00000000000000	7.88274400000000	0.00000000000000	
23.36657700000000	-43.37017500000000	706.05150200000003	45.29336300000000	0.07395700000000	0.00000000000000	0.10734600000000	7.20061500000000	189.84569700000000	8.50875500000000	0.35312000000000	0.00000000000000	-0.06970900000000	0.00000000000000	15.03120500000000	0.00000000000000	0.00000000000000	7.87496300000000	0.00000000000000	
23.36824100000000	-43.86449300000000	700.62034600000004	44.65231600000000	0.07339800000000	0.00000000000000	0.10712500000000	8.20428400000000	197.09450600000000	8.21549800000000	0.35330100000000	0.00000000000000	-0.06990600000000	0.00000000000000	14.97928500000000	0.00000000000000	0.00000000000000	7.84927200000000	0.00000000000000	
23.36990900000000	-44.36559200000000	695.05059100000005	43.99407400000000	0.07283500000000	0.00000000000000	0.10690100000000	9.25165800000000	204.41163000000000	7.88500900000000	0.35343800000000	0.00000000000000	-0.07010600000000	0.00000000000000	14.92861000000000	0.00000000000000	0.00000000000000	7.80433600000000	0.00000000000000	
23.37159000000000	-44.87232700000000	689.34181999999998	43.31910200000000	0.07226600000000	0.00000000000000	0.10667500000000	10.34230200000000	211.78404300000000	7.51595200000000	0.35353200000000	0.00000000000000	-0.07030800000000	0.00000000000000	14.87902600000000	0.00000000000000	0.00000000000000	7.73917100000000	0.00000000000000	
23.37324400000000	-45.38346700000000	683.49368900000002	42.62790000000000	0.07169200000000	0.00000000000000	0.10644800000000	11.47533600000000	219.20130599999999	7.10755100000000	0.35358600000000	0.00000000000000	-0.07051100000000	0.00000000000000	14.83036800000000	0.00000000000000	0.00000000000000	7.65314400000000	0.00000000000000	
23.37490800000000	-45.89769400000000	677.50592900000004	41.92100600000000	0.07111100000000	0.00000000000000	0.10621800000000	12.64945600000000	226.65552800000000	6.65956800000000	0.35359900000000	0.00000000000000	-0.07071700000000	0.00000000000000	14.78245300000000	0.00000000000000	0.00000000000000	7.54596700000000	0.00000000000000	
23.37659400000000	-46.41360900000000	671.37836200000004	41.19898800000000	0.07052400000000	0.00000000000000	0.10598600000000	13.86298200000000	234.14113900000001	6.17224900000000	0.35357500000000	0.00000000000000	-0.07092400000000	0.00000000000000	14.73508900000000	0.00000000000000	0.00000000000000	7.41766000000000	0.00000000000000	
23.37824500000000	-46.92973400000000	665.11091399999998	40.46245000000000	0.06992900000000	0.00000000000000	0.10575300000000	15.11390900000000	241.65453400000001	5.64625900000000	0.35351200000000	0.00000000000000	-0.07113200000000	0.00000000000000	14.68806900000000	0.00000000000000	0.00000000000000	7.26850700000000	0.00000000000000	
23.37991600000000	-47.44451200000000	658.70362100000000	39.71202700000000	0.06932800000000	0.00000000000000	0.10551800000000	16.39997100000000	249.19364899999999	5.08260100000000	0.35341300000000	0.00000000000000	-0.07134200000000	0.00000000000000	14.64117500000000	0.00000000000000	0.00000000000000	7.09900500000000	0.00000000000000	
23.38159300000000	-47.95631100000000	652.15664500000003	38.94838800000000	0.06871800000000	0.00000000000000	0.10528100000000	17.71869800000000	256.75750199999999	4.48253200000000	0.35327900000000	0.00000000000000	-0.07155200000000	0.00000000000000	14.59417800000000	0.00000000000000	0.00000000000000	6.90981100000000	0.00000000000000	
